<mxfile host="app.diagrams.net" modified="2021-12-19T07:32:58.373Z" agent="5.0 (X11; Linux x86_64) AppleWebKit/537.36 (KHTML, like Gecko) Chrome/96.0.4664.110 Safari/537.36" etag="faQLvMnNTROD3gh0pN9F" version="16.0.0" type="github">
  <diagram id="MGkTAPgzUAsyTC-uwSd_" name="Page-1">
    <mxGraphModel dx="1422" dy="694" grid="1" gridSize="10" guides="1" tooltips="1" connect="1" arrows="1" fold="1" page="1" pageScale="1" pageWidth="827" pageHeight="1169" math="0" shadow="0">
      <root>
        <mxCell id="0" />
        <mxCell id="1" parent="0" />
        <mxCell id="LDChOEEf8gFjjrPUQi_g-3" style="edgeStyle=orthogonalEdgeStyle;rounded=0;orthogonalLoop=1;jettySize=auto;html=1;" edge="1" parent="1" source="LDChOEEf8gFjjrPUQi_g-1" target="LDChOEEf8gFjjrPUQi_g-2">
          <mxGeometry relative="1" as="geometry" />
        </mxCell>
        <mxCell id="LDChOEEf8gFjjrPUQi_g-1" value="" style="rounded=0;whiteSpace=wrap;html=1;" vertex="1" parent="1">
          <mxGeometry x="80" y="280" width="120" height="60" as="geometry" />
        </mxCell>
        <mxCell id="LDChOEEf8gFjjrPUQi_g-2" value="" style="whiteSpace=wrap;html=1;aspect=fixed;" vertex="1" parent="1">
          <mxGeometry x="430" y="290" width="80" height="80" as="geometry" />
        </mxCell>
      </root>
    </mxGraphModel>
  </diagram>
</mxfile>
